<svg width="44" height="40" viewBox="0 0 44 40" fill="none" xmlns="http://www.w3.org/2000/svg">
<path d="M37.947 14.5H17.6617C17.3087 14.5 17.0225 14.7862 17.0225 15.1392C17.0225 15.4923 17.3087 15.7785 17.6617 15.7785H37.947C38.3 15.7785 38.5862 15.4923 38.5862 15.1392C38.5862 14.7862 38.3 14.5 37.947 14.5Z" fill="white"/>
<path d="M37.947 19.3867H17.6617C17.3087 19.3867 17.0225 19.6729 17.0225 20.026C17.0225 20.379 17.3087 20.6652 17.6617 20.6652H37.947C38.3 20.6652 38.5862 20.379 38.5862 20.026C38.5862 19.6729 38.3 19.3867 37.947 19.3867Z" fill="white"/>
<path d="M37.947 24.2734H17.6617C17.3087 24.2734 17.0225 24.5596 17.0225 24.9127C17.0225 25.2657 17.3087 25.5519 17.6617 25.5519H37.947C38.3 25.5519 38.5862 25.2657 38.5862 24.9127C38.5862 24.5596 38.3 24.2734 37.947 24.2734Z" fill="white"/>
<path d="M39.9774 8.90918H15.6311C13.581 8.90918 11.9131 10.577 11.9131 12.6272V27.9363C11.9131 29.9864 13.5809 31.6544 15.6311 31.6544H32.6955C32.878 31.6544 33.0475 31.7364 33.1607 31.8797L38.6714 38.8562C38.8886 39.1312 39.2055 39.281 39.5373 39.281C39.6606 39.281 39.7861 39.2603 39.9092 39.2175C40.3632 39.0598 40.6566 38.6474 40.6566 38.1668V31.5909C42.3804 31.2688 43.6954 29.7448 43.6954 27.9363V12.6271C43.6954 10.577 42.0275 8.90918 39.9774 8.90918ZM42.4169 27.9363C42.4169 29.264 41.3367 30.358 40.0091 30.3748C39.6593 30.3794 39.378 30.6642 39.378 31.0141V37.6882L34.164 31.0872C33.807 30.6351 33.2717 30.3758 32.6955 30.3758H15.6311C14.286 30.3758 13.1916 29.2814 13.1916 27.9363V12.6271C13.1916 11.282 14.2859 10.1876 15.6311 10.1876H39.9774C41.3225 10.1876 42.4169 11.282 42.4169 12.6271V27.9363Z" fill="white"/>
<path d="M9.4743 19.4787C9.03706 19.5408 8.6455 19.7659 8.37173 20.1124L3.98048 25.6718V20.1001C3.98048 19.7502 3.69921 19.4653 3.34942 19.4608C2.23876 19.4467 1.33512 18.5315 1.33512 17.4208V4.09379C1.33512 2.96846 2.25069 2.0529 3.37601 2.0529H24.5701C25.6954 2.0529 26.611 2.96846 26.611 4.09379V6.55973C26.611 6.91276 26.8972 7.19897 27.2503 7.19897C27.6033 7.19897 27.8895 6.91276 27.8895 6.55973V4.09379C27.8895 2.26351 26.4004 0.774414 24.5701 0.774414H3.37601C1.54573 0.774414 0.0566406 2.26351 0.0566406 4.09379V17.4208C0.0566406 19.0118 1.19628 20.356 2.70208 20.6702V26.3267C2.70208 26.7808 2.97926 27.1706 3.40832 27.3196C3.52466 27.36 3.64313 27.3796 3.75973 27.3796C4.07313 27.3796 4.37272 27.2379 4.57787 26.9782L9.37509 20.9049C9.44429 20.8172 9.54342 20.7603 9.65405 20.7445C10.0036 20.6949 10.2468 20.3713 10.1971 20.0217C10.1475 19.6722 9.82435 19.4289 9.4743 19.4787Z" fill="white"/>
</svg>
