<svg width="15" height="16" viewBox="0 0 15 16" fill="none" xmlns="http://www.w3.org/2000/svg">
<path d="M13.7643 2.32522C13.5584 2.10418 13.2242 2.1038 13.0183 2.32429L6.68838 9.08841L4.40457 6.4308C4.20723 6.20129 3.87358 6.18641 3.65902 6.39781C3.44462 6.60925 3.43089 6.9669 3.62823 7.19662L6.28402 10.2869C6.38128 10.4001 6.5174 10.4659 6.66093 10.4691C6.66478 10.4693 6.6685 10.4693 6.67219 10.4693C6.81167 10.4693 6.94585 10.4099 7.0447 10.3044L13.7633 3.12477C13.9698 2.90431 13.9701 2.54627 13.7643 2.32522Z" fill="#5A6C8F"/>
<path d="M13.6369 7.20907C13.3455 7.20907 13.1093 7.46214 13.1093 7.77441C13.1093 11.2866 10.4426 14.1438 7.16455 14.1438C3.88669 14.1438 1.21983 11.2866 1.21983 7.77441C1.21983 4.26242 3.88669 1.40507 7.16455 1.40507C7.45598 1.40507 7.6922 1.152 7.6922 0.839756C7.6922 0.52748 7.45598 0.274414 7.16455 0.274414C3.30471 0.274414 0.164551 3.63887 0.164551 7.77441C0.164551 11.9098 3.30471 15.2744 7.16455 15.2744C11.0242 15.2744 14.1646 11.9098 14.1646 7.77441C14.1646 7.46217 13.9284 7.20907 13.6369 7.20907Z" fill="#5A6C8F"/>
</svg>
