<svg width="16" height="16" viewBox="0 0 16 16" fill="none" xmlns="http://www.w3.org/2000/svg">
<path d="M7.66455 2.03223C8.14996 2.03223 8.54346 1.63873 8.54346 1.15332C8.54346 0.667915 8.14996 0.274414 7.66455 0.274414C7.17914 0.274414 6.78564 0.667915 6.78564 1.15332C6.78564 1.63873 7.17914 2.03223 7.66455 2.03223Z" fill="#B4BF18"/>
<path d="M7.63505 8.33133C7.95866 8.33133 8.22099 8.069 8.22099 7.74539C8.22099 7.58358 8.15542 7.4371 8.0494 7.33107L2.8492 2.13086L2.02051 2.95949L7.2207 8.15971C7.32676 8.26573 7.47324 8.33133 7.63505 8.33133Z" fill="#B4BF18"/>
<path d="M13.4461 2.99711C12.4543 1.79819 11.1087 0.935451 9.61912 0.533203C9.68147 0.729053 9.71533 0.937472 9.71533 1.15371C9.71533 1.36336 9.68357 1.56572 9.62483 1.75635C12.1939 2.59266 13.9927 5.01813 13.9927 7.77483C13.9927 11.2642 11.1539 14.103 7.66455 14.103C4.17521 14.103 1.33643 11.2642 1.33643 7.77483C1.33643 6.68771 1.60903 5.64283 2.1212 4.7174L1.26427 3.86046C0.5479 5.02686 0.164551 6.37118 0.164551 7.77483C0.164551 9.77816 0.944697 11.6616 2.36123 13.0782C3.77782 14.4947 5.66123 15.2749 7.66455 15.2749C9.66787 15.2749 11.5513 14.4947 12.9679 13.0782C14.3844 11.6616 15.1646 9.77816 15.1646 7.77483C15.1646 6.03348 14.5543 4.33671 13.4461 2.99711Z" fill="#B4BF18"/>
</svg>
