<svg width="15" height="16" viewBox="0 0 15 16" fill="none" xmlns="http://www.w3.org/2000/svg">
<path d="M13.8923 7.20907C13.6008 7.20907 13.3646 7.46214 13.3646 7.77441C13.3646 11.2866 10.698 14.1438 7.41992 14.1438C4.14206 14.1438 1.4752 11.2866 1.4752 7.77441C1.4752 4.26242 4.14206 1.40507 7.41992 1.40507C7.71135 1.40507 7.94757 1.152 7.94757 0.839756C7.94757 0.52748 7.71135 0.274414 7.41992 0.274414C3.56008 0.274414 0.419922 3.63887 0.419922 7.77441C0.419922 11.9098 3.56008 15.2744 7.41992 15.2744C11.2796 15.2744 14.4199 11.9098 14.4199 7.77441C14.4199 7.46217 14.1837 7.20907 13.8923 7.20907Z" fill="#F95151"/>
</svg>
