<svg width="20" height="21" viewBox="0 0 20 21" fill="none" xmlns="http://www.w3.org/2000/svg">
<path d="M19.6256 12.1557C20.2521 6.8821 19.3246 3.55272 17.6516 2.04685L17.6524 2.04597C14.9522 -0.52565 5.83294 -0.906275 2.60244 2.16147C1.15169 3.6621 0.640688 5.86448 0.584688 8.59097C0.528688 11.3183 0.462188 16.4275 5.22306 17.8135H5.22744L5.22306 19.9301C5.22306 19.9301 5.19069 20.7876 5.73844 20.96C6.36494 21.163 6.64844 20.7648 8.59706 18.4373C11.8556 18.72 14.3581 18.0725 14.6424 17.978C15.3004 17.7575 19.0236 17.2648 19.6256 12.1557ZM8.91819 16.9481C8.91819 16.9481 6.85581 19.5197 6.21444 20.1873C6.00444 20.4044 5.77431 20.3842 5.77781 19.9537C5.77781 19.6711 5.79356 16.4397 5.79356 16.4397C1.75719 15.283 1.99519 10.9325 2.03894 8.6566C2.08269 6.37985 2.49919 4.51522 3.72769 3.2596C6.56181 0.602225 14.5567 1.19635 16.5937 3.11085C19.0839 5.31847 18.1976 11.5555 18.2028 11.7681C17.6909 16.0328 14.6739 16.3032 14.1192 16.4878C13.8821 16.5666 11.6814 17.1327 8.91819 16.9481Z" fill="#454545"/>
<path d="M10.0593 3.75977C9.72242 3.75977 9.72242 4.28477 10.0593 4.28914C12.6729 4.30927 14.8254 6.13102 14.849 9.47264C14.849 9.82527 15.3653 9.82089 15.3609 9.46827H15.36C15.332 5.86764 12.9818 3.77989 10.0593 3.75977Z" fill="#454545"/>
<path d="M13.4966 8.91891C13.4887 9.26716 14.0041 9.28378 14.0085 8.93116C14.0513 6.94578 12.8272 5.31041 10.5268 5.13803C10.1899 5.11353 10.1549 5.64291 10.4909 5.66741C12.4859 5.81878 13.5368 7.18028 13.4966 8.91891Z" fill="#454545"/>
<path d="M12.9467 11.1771C12.5144 10.9268 12.0743 11.0826 11.8923 11.3285L11.5117 11.8211C11.3183 12.0713 10.9569 12.0381 10.9569 12.0381C8.31966 11.3407 7.61441 8.58097 7.61441 8.58097C7.61441 8.58097 7.58204 8.20735 7.82354 8.00697L8.29954 7.61322C8.53753 7.42422 8.68803 6.96922 8.44566 6.5221C7.79816 5.35222 7.36329 4.94885 7.14191 4.6391C6.90916 4.34772 6.55916 4.2821 6.19516 4.47897H6.18729C5.43041 4.92172 4.60179 5.75035 4.86691 6.60347C5.31929 7.50297 6.15054 10.3703 8.80003 12.5368C10.0452 13.5615 12.0157 14.6115 12.8522 14.8538L12.86 14.8661C13.6843 15.1408 14.4858 14.2798 14.9137 13.5002V13.4941C15.1035 13.117 15.0405 12.76 14.7632 12.5263C14.2714 12.0468 13.5294 11.5175 12.9467 11.1771Z" fill="#454545"/>
<path d="M10.8869 7.09097C11.7278 7.13997 12.1356 7.57922 12.1793 8.48135C12.1951 8.83397 12.7069 8.80947 12.6912 8.45685C12.6352 7.2791 12.0209 6.62284 10.9149 6.56159C10.5781 6.54147 10.5466 7.07085 10.8869 7.09097Z" fill="#454545"/>
</svg>
