<svg width="22" height="22" viewBox="0 0 22 22" fill="none" xmlns="http://www.w3.org/2000/svg">
<path d="M10.3552 0.0127229C4.80908 0.28937 0.432442 5.12812 0.449267 10.9449C0.45439 12.7165 0.862653 14.3887 1.58285 15.8662L0.477091 21.4893C0.417275 21.7935 0.679138 22.0598 0.967569 21.9883L6.22707 20.6828C7.57832 21.388 9.09606 21.7953 10.7023 21.8209C16.371 21.9117 21.0976 17.1963 21.2743 11.2599C21.4637 4.89657 16.4505 -0.291389 10.3552 0.0127229ZM16.6309 16.9523C15.0906 18.5659 13.0426 19.4545 10.8644 19.4545C9.5889 19.4545 8.36778 19.1548 7.2348 18.5635L6.50235 18.1813L3.27773 18.9817L3.95649 15.5298L3.59564 14.7895C3.00748 13.5828 2.70925 12.2779 2.70925 10.9111C2.70925 8.62905 3.55752 6.48363 5.09781 4.86994C6.62434 3.27072 8.70568 2.36759 10.8645 2.36759C13.0428 2.36765 15.0906 3.25631 16.6309 4.86989C18.1712 6.48353 19.0195 8.62894 19.0195 10.9109C19.0195 13.1726 18.1574 15.3531 16.6309 16.9523Z" fill="#454545"/>
<path d="M15.9176 13.277L13.9002 12.6701C13.6349 12.5904 13.3493 12.6692 13.156 12.8755L12.6627 13.4021C12.4547 13.6241 12.139 13.6954 11.8637 13.5787C10.9094 13.1741 8.90186 11.3042 8.38918 10.3689C8.24127 10.0991 8.26573 9.76176 8.44734 9.51558L8.87805 8.93182C9.0468 8.70311 9.08241 8.39594 8.97081 8.13156L8.12205 6.12047C7.91874 5.63879 7.33118 5.49857 6.94733 5.83867C6.38428 6.33756 5.71621 7.09568 5.635 7.93557C5.49182 9.41635 6.09801 11.283 8.39034 13.5244C11.0386 16.1138 13.1593 16.4559 14.5401 16.1055C15.3233 15.9068 15.9491 15.1101 16.3442 14.4578C16.6134 14.013 16.4008 13.4224 15.9176 13.277Z" fill="#454545"/>
</svg>
